<svg width="96" height="96" viewBox="0 0 96 96" xmlns="http://www.w3.org/2000/svg"><title>timetab.io</title><defs><linearGradient x1="50%" y1="0%" x2="50%" y2="100%" id="a"><stop stop-color="#231D88" offset="0%"/><stop stop-color="#39965C" offset="100%"/></linearGradient><filter x="-50%" y="-50%" width="200%" height="200%" filterUnits="objectBoundingBox" id="b"><feGaussianBlur stdDeviation="2" in="SourceGraphic"/></filter></defs><g fill="none" fill-rule="evenodd"><path d="M48 96c26.51 0 48-21.49 48-48S74.51 0 48 0 0 21.49 0 48s21.49 48 48 48z" fill="url(#a)"/><path d="M43.125 66C33.918 63.88 16.5 57.375 16.5 57.375L48 53.25 73.5 70.5S52.918 68.255 43.125 66z" fill-opacity=".336" fill="#000" filter="url(#b)"/><path fill="#FFF" d="M56 17l18 54-30-12-28-2z"/><path fill="#E2E2E2" d="M44 59l12-42-40 40z"/></g></svg>