<?xml version="1.0" encoding="UTF-8"?>
<svg width="122px" height="20px" viewBox="0 0 122 20" version="1.1" xmlns="http://www.w3.org/2000/svg">
    <title>timetab.io</title>
    <g id="Logo" stroke="none" stroke-width="1" fill="none" fill-rule="evenodd">
        <g fill="#191919">
            <path d="M1.98347107,7.41046832 L0.247933884,7.41046832 C0.0550964187,7.85123967 0,8.15426997 0,8.62258953 C0.909090909,8.67768595 1.43250689,8.78787879 1.98347107,8.98071625 L1.98347107,16.446281 C1.98347107,18.953168 3.00275482,20 5.17906336,20 C6.33608815,20 7.68595041,19.4490358 8.29201102,18.7603306 C8.26446281,18.4573003 8.09917355,18.0991736 7.87878788,17.8512397 C7.3553719,18.292011 6.83195592,18.5123967 6.06060606,18.5123967 C5.06887052,18.5123967 4.49035813,17.7134986 4.49035813,15.8677686 L4.49035813,8.98071625 C5.39944904,8.78787879 6.4738292,8.67768595 7.79614325,8.62258953 C7.96143251,8.20936639 8.04407713,7.76859504 8.04407713,7.41046832 L4.49035813,7.41046832 L4.49035813,4.1046832 C4.49035813,2.9476584 4.4077135,2.83746556 4.04958678,2.67217631 C3.49862259,3.14049587 2.69972452,3.58126722 1.98347107,3.77410468 L1.98347107,7.41046832 Z M13.1955923,0.495867769 C12.3415978,0.495867769 11.5702479,1.184573 11.5702479,2.17630854 C11.5702479,3.05785124 12.2589532,3.77410468 13.1955923,3.77410468 C14.1046832,3.77410468 14.8484848,3.03030303 14.8484848,2.17630854 C14.8484848,1.184573 14.1873278,0.495867769 13.1955923,0.495867769 Z M14.6556474,7.98898072 C14.6556474,7.30027548 14.3801653,6.99724518 14.0495868,6.88705234 C13.3884298,7.3553719 11.184573,7.82369146 10.3581267,7.82369146 C10.1652893,8.12672176 10.1101928,8.42975207 10.1101928,8.84297521 C11.9834711,8.84297521 12.1763085,9.50413223 12.1763085,10.7988981 L12.1763085,16.2534435 C12.1763085,18.0991736 11.7355372,18.6501377 10.2754821,18.6501377 C10.1652893,19.0082645 10.137741,19.476584 10.137741,19.8347107 C11.046832,19.7796143 12.2589532,19.7520661 13.3057851,19.7520661 C14.3526171,19.7520661 15.4545455,19.7796143 16.4187328,19.8347107 C16.4187328,19.5867769 16.3911846,19.0358127 16.2809917,18.6501377 C15.0964187,18.6501377 14.6556474,18.0991736 14.6556474,16.2534435 L14.6556474,7.98898072 Z M40.661157,18.6501377 C39.5316804,18.5674931 39.0082645,18.15427 39.0082645,16.2534435 L39.0082645,11.5151515 C39.0082645,8.15426997 37.1900826,7.02479339 35.1239669,7.02479339 C33.1955923,7.02479339 31.7906336,8.15426997 31.184573,9.00826446 C30.9917355,9.25619835 30.8539945,9.50413223 30.7162534,9.88980716 C30.7162534,9.64187328 30.661157,9.39393939 30.6060606,9.20110193 C30.0275482,7.52066116 28.6225895,6.88705234 27.0798898,6.88705234 C25.1515152,6.88705234 23.7190083,8.01652893 23.1404959,8.87052342 C23.0578512,8.95316804 22.9476584,9.17355372 22.6997245,9.75206612 C22.7823691,8.92561983 22.8099174,8.45730028 22.8099174,7.98898072 C22.8099174,7.30027548 22.5344353,6.99724518 22.2038567,6.88705234 C21.4876033,7.30027548 19.5867769,7.76859504 18.6501377,7.82369146 C18.4573003,8.12672176 18.4022039,8.42975207 18.4022039,8.84297521 C20.2203857,8.89807163 20.4683196,9.50413223 20.4683196,10.7988981 L20.4683196,16.2534435 C20.4683196,18.0991736 20.0275482,18.5674931 18.5674931,18.6501377 C18.4573003,18.953168 18.4297521,19.338843 18.4297521,19.8347107 C19.3112948,19.7796143 20.7438017,19.7520661 21.707989,19.7520661 C22.6721763,19.7520661 24.0495868,19.7796143 24.9862259,19.8347107 C24.9862259,19.338843 24.9586777,18.9807163 24.8484848,18.6501377 C23.3884298,18.5674931 22.9201102,18.0991736 22.9201102,16.2534435 L22.9201102,13.1680441 C22.9201102,9.80716253 24.5730028,8.56749311 25.9779614,8.56749311 C27.4655647,8.56749311 28.5123967,9.33884298 28.5123967,11.9283747 L28.5123967,16.2534435 C28.5123967,18.0991736 28.0716253,18.5674931 26.6115702,18.6501377 C26.5013774,18.953168 26.4738292,19.338843 26.4738292,19.8347107 C27.4655647,19.7796143 28.677686,19.7520661 29.7520661,19.7520661 C30.8264463,19.7520661 32.0936639,19.7796143 33.030303,19.8347107 C33.030303,19.338843 33.0027548,18.9807163 32.892562,18.6501377 C31.4876033,18.5674931 30.9641873,18.15427 30.9641873,16.2534435 L30.9641873,13.3057851 C30.9641873,9.94490358 32.6170799,8.70523416 34.0220386,8.70523416 C35.5096419,8.70523416 36.5564738,9.47658402 36.5564738,12.0661157 L36.5564738,16.2534435 C36.5564738,18.0991736 36.1157025,18.5674931 34.6556474,18.6501377 C34.5454545,18.953168 34.5179063,19.338843 34.5179063,19.8347107 C35.4269972,19.7796143 36.6942149,19.7520661 37.7961433,19.7520661 C38.8980716,19.7520661 39.9724518,19.7796143 40.7988981,19.8347107 C40.7988981,19.338843 40.7713499,18.9807163 40.661157,18.6501377 Z M52.9476584,16.8595041 C52.0385675,17.9063361 50.7988981,18.4573003 49.5867769,18.4573003 C46.6942149,18.4573003 45.7575758,16.1157025 45.5922865,13.6639118 C48.4573003,13.5261708 52.1487603,13.5261708 53.3057851,13.5261708 C53.4986226,13.2782369 53.6363636,12.9752066 53.7190083,12.5895317 C53.4986226,9.44903581 52.1487603,6.88705234 48.5674931,6.88705234 C45.0413223,6.88705234 42.8650138,9.91735537 42.8650138,13.4435262 C42.8650138,17.0523416 44.7933884,20 48.7052342,20 C50.7162534,20 52.3415978,19.3663912 53.6088154,17.7134986 C53.553719,17.4104683 53.2506887,17.0247934 52.9476584,16.8595041 Z M48.3195592,8.20936639 C49.9173554,8.20936639 50.8539945,9.86225895 50.8539945,12.2865014 L45.5647383,12.2865014 C45.7024793,9.09090909 47.0247934,8.20936639 48.3195592,8.20936639 Z M57.3553719,7.41046832 L55.6198347,7.41046832 C55.4269972,7.85123967 55.3719008,8.15426997 55.3719008,8.62258953 C56.2809917,8.67768595 56.8044077,8.78787879 57.3553719,8.98071625 L57.3553719,16.446281 C57.3553719,18.953168 58.3746556,20 60.5509642,20 C61.707989,20 63.0578512,19.4490358 63.6639118,18.7603306 C63.6363636,18.4573003 63.4710744,18.0991736 63.2506887,17.8512397 C62.7272727,18.292011 62.2038567,18.5123967 61.4325069,18.5123967 C60.4407713,18.5123967 59.862259,17.7134986 59.862259,15.8677686 L59.862259,8.98071625 C60.7713499,8.78787879 61.84573,8.67768595 63.1680441,8.62258953 C63.3333333,8.20936639 63.415978,7.76859504 63.415978,7.41046832 L59.862259,7.41046832 L59.862259,4.1046832 C59.862259,2.9476584 59.7796143,2.83746556 59.4214876,2.67217631 C58.8705234,3.14049587 58.0716253,3.58126722 57.3553719,3.77410468 L57.3553719,7.41046832 Z M75.399449,12.6997245 C75.399449,10.2479339 75.1790634,8.87052342 74.2424242,7.9338843 C73.6363636,7.32782369 72.6721763,6.88705234 71.322314,6.88705234 C69.9173554,6.88705234 68.1267218,7.3553719 66.6391185,8.12672176 C66.8044077,8.95316804 66.8595041,10.2203857 66.7768595,11.1294766 C67.0523416,11.2672176 67.7961433,11.322314 68.2093664,11.322314 C68.2644628,10.1652893 68.7878788,8.12672176 70.6336088,8.12672176 C71.322314,8.12672176 71.9008264,8.40220386 72.3415978,8.95316804 C72.8099174,9.53168044 72.9201102,10.1101928 72.9201102,12.369146 C70.661157,12.6997245 65.8677686,13.4435262 65.8677686,17.0247934 C65.8677686,18.8429752 67.1349862,19.9449036 69.3663912,19.9449036 C70.6887052,19.9449036 71.5977961,19.5592287 72.231405,19.0082645 C72.6721763,18.6225895 72.9752066,18.1818182 73.1680441,17.7134986 C73.1404959,17.9614325 73.1129477,18.2369146 73.1129477,18.4848485 C73.1129477,19.6418733 73.415978,19.8347107 73.8016529,20 C74.6556474,19.5316804 76.0330579,19.2011019 76.9421488,19.1460055 C77.0798898,18.7603306 77.107438,18.2644628 77.107438,17.8787879 C75.5922865,17.8787879 75.399449,17.3002755 75.399449,16.0055096 L75.399449,12.6997245 Z M72.9201102,14.5454545 C72.9201102,17.3278237 71.3498623,18.4297521 70.1652893,18.4297521 C69.3112948,18.4297521 68.5399449,17.8236915 68.5399449,16.4738292 C68.5399449,14.077135 71.046832,13.7465565 72.9201102,13.4986226 L72.9201102,14.5454545 Z M87.0247934,6.88705234 C85.1790634,6.88705234 83.7465565,8.09917355 83.2506887,8.92561983 C83.1680441,9.06336088 83.0578512,9.22865014 82.9201102,9.47658402 C82.9752066,9.14600551 83.030303,8.78787879 83.030303,8.29201102 L83.030303,1.10192837 C83.030303,0.41322314 82.7548209,0.110192837 82.4242424,0 C81.7630854,0.468319559 79.5592287,0.936639118 78.7327824,0.936639118 C78.5399449,1.23966942 78.4848485,1.54269972 78.4848485,1.95592287 C80.3581267,1.95592287 80.5509642,2.61707989 80.5509642,3.91184573 L80.5509642,14.6280992 C80.5509642,16.8044077 80.3305785,17.630854 79.9449036,18.1267218 C81.046832,19.1735537 82.8099174,20 85.3168044,20 C89.4490358,20 92.1763085,16.8595041 92.1763085,13.0027548 C92.1763085,8.76033058 90.2479339,6.88705234 87.0247934,6.88705234 Z M85.4545455,18.7327824 C84.3801653,18.7327824 83.6639118,18.3471074 83.030303,17.768595 L83.030303,13.8842975 C83.030303,10.0275482 84.738292,8.62258953 86.3636364,8.62258953 C87.5757576,8.62258953 89.4490358,9.83471074 89.4490358,13.3608815 C89.4490358,17.7410468 86.969697,18.7327824 85.4545455,18.7327824 Z M98.1267218,18.3746556 C98.1267218,17.7410468 97.5482094,16.9421488 96.6115702,16.9421488 C95.6198347,16.9421488 94.9311295,17.6584022 94.9311295,18.5123967 C94.9311295,19.3663912 95.5096419,19.9724518 96.5013774,19.9724518 C97.3553719,19.9724518 98.1267218,19.476584 98.1267218,18.3746556 Z M103.856749,0.495867769 C103.002755,0.495867769 102.231405,1.184573 102.231405,2.17630854 C102.231405,3.05785124 102.92011,3.77410468 103.856749,3.77410468 C104.76584,3.77410468 105.509642,3.03030303 105.509642,2.17630854 C105.509642,1.184573 104.848485,0.495867769 103.856749,0.495867769 Z M105.316804,7.98898072 C105.316804,7.30027548 105.041322,6.99724518 104.710744,6.88705234 C104.049587,7.3553719 101.84573,7.82369146 101.019284,7.82369146 C100.826446,8.12672176 100.77135,8.42975207 100.77135,8.84297521 C102.644628,8.84297521 102.837466,9.50413223 102.837466,10.7988981 L102.837466,16.2534435 C102.837466,18.0991736 102.396694,18.6501377 100.936639,18.6501377 C100.826446,19.0082645 100.798898,19.476584 100.798898,19.8347107 C101.707989,19.7796143 102.92011,19.7520661 103.966942,19.7520661 C105.013774,19.7520661 106.115702,19.7796143 107.07989,19.8347107 C107.07989,19.5867769 107.052342,19.0358127 106.942149,18.6501377 C105.757576,18.6501377 105.316804,18.0991736 105.316804,16.2534435 L105.316804,7.98898072 Z M115.399449,6.88705234 C111.735537,6.88705234 109.173554,9.6969697 109.173554,13.4435262 C109.173554,17.4104683 111.625344,20 115.399449,20 C119.118457,20 121.625344,17.2176309 121.625344,13.4435262 C121.625344,9.53168044 119.311295,6.88705234 115.399449,6.88705234 Z M115.123967,8.20936639 C117.162534,8.20936639 118.870523,10.3581267 118.870523,13.7741047 C118.870523,16.6666667 117.823691,18.677686 115.619835,18.677686 C113.38843,18.677686 111.955923,16.584022 111.955923,12.8650138 C111.955923,10.1101928 113.002755,8.20936639 115.123967,8.20936639 Z"/>
        </g>
    </g>
</svg>
