<svg xmlns="http://www.w3.org/2000/svg">
  <symbol id="icon" viewBox="0 0 128 128">
    <title>Delete</title>
    <g stroke="none" stroke-width="1" fill="none" fill-rule="evenodd">
        <g fill="currentColor">
            <path d="M116.545455,34.9090909 L11.8181818,34.9090909 C8.60072727,34.9090909 6,32.3083636 6,29.0909091 C6,25.8734545 8.60072727,23.2727273 11.8181818,23.2727273 L116.545455,23.2727273 C119.762909,23.2727273 122.363636,25.8734545 122.363636,29.0909091 C122.363636,32.3083636 119.762909,34.9090909 116.545455,34.9090909"/>
            <path d="M93.2727273,128 L35.0909091,128 C25.4676364,128 17.6363636,120.168727 17.6363636,110.545455 L17.6363636,29.0909091 C17.6363636,25.8734545 20.2370909,23.2727273 23.4545455,23.2727273 C26.672,23.2727273 29.2727273,25.8734545 29.2727273,29.0909091 L29.2727273,110.545455 C29.2727273,113.757091 31.8792727,116.363636 35.0909091,116.363636 L93.2727273,116.363636 C96.4843636,116.363636 99.0909091,113.757091 99.0909091,110.545455 L99.0909091,29.0909091 C99.0909091,25.8734545 101.691636,23.2727273 104.909091,23.2727273 C108.126545,23.2727273 110.727273,25.8734545 110.727273,29.0909091 L110.727273,110.545455 C110.727273,120.168727 102.896,128 93.2727273,128"/>
            <path d="M87.4545455,34.9090909 C84.2370909,34.9090909 81.6363636,32.3083636 81.6363636,29.0909091 L81.6363636,17.4545455 C81.6363636,14.2429091 79.0298182,11.6363636 75.8181818,11.6363636 L52.5454545,11.6363636 C49.3338182,11.6363636 46.7272727,14.2429091 46.7272727,17.4545455 L46.7272727,29.0909091 C46.7272727,32.3083636 44.1265455,34.9090909 40.9090909,34.9090909 C37.6916364,34.9090909 35.0909091,32.3083636 35.0909091,29.0909091 L35.0909091,17.4545455 C35.0909091,7.83127273 42.9221818,0 52.5454545,0 L75.8181818,0 C85.4414545,0 93.2727273,7.83127273 93.2727273,17.4545455 L93.2727273,29.0909091 C93.2727273,32.3083636 90.672,34.9090909 87.4545455,34.9090909"/>
        </g>
    </g>
  </symbol>
</svg>