<svg xmlns="http://www.w3.org/2000/svg">
  <symbol id="icon" viewBox="0 0 128 128">
    <title>Invite</title>
    <g stroke="none" stroke-width="1" fill="none" fill-rule="evenodd">
        <g fill="currentColor">
            <path d="M53.3333333,79.6666667 C28.1866667,79.6666667 10.6666667,90.9093333 10.6666667,101 L10.6666667,106.333333 C10.6666667,109.277333 13.056,111.666667 16,111.666667 L90.6666667,111.666667 C93.6106667,111.666667 96,109.277333 96,106.333333 L96,101 C96,90.9093333 78.48,79.6666667 53.3333333,79.6666667 M90.6666667,122.333333 L16,122.333333 C7.17866667,122.333333 0,115.154667 0,106.333333 L0,101 C0,83.0586667 23.4293333,69 53.3333333,69 C83.2373333,69 106.666667,83.0586667 106.666667,101 L106.666667,106.333333 C106.666667,115.154667 99.488,122.333333 90.6666667,122.333333 Z M53.3333333,58.3333333 C38.6293333,58.3333333 26.6666667,46.3706667 26.6666667,31.6666667 C26.6666667,16.9626667 38.6293333,5 53.3333333,5 C68.0373333,5 80,16.9626667 80,31.6666667 C80,46.3706667 68.0373333,58.3333333 53.3333333,58.3333333 Z M101.333333,58.3333333 L101.333333,69 C101.333333,71.9493333 103.717333,74.3333333 106.666667,74.3333333 C109.616,74.3333333 112,71.9493333 112,69 L112,58.3333333 L122.666667,58.3333333 C125.616,58.3333333 128,55.9493333 128,53 C128,50.0506667 125.616,47.6666667 122.666667,47.6666667 L112,47.6666667 L112,37 C112,34.0506667 109.616,31.6666667 106.666667,31.6666667 C103.717333,31.6666667 101.333333,34.0506667 101.333333,37 L101.333333,47.6666667 L90.6666667,47.6666667 C87.7173333,47.6666667 85.3333333,50.0506667 85.3333333,53 C85.3333333,55.9493333 87.7173333,58.3333333 90.6666667,58.3333333 L101.333333,58.3333333 Z M53.3333333,15.6666667 C44.512,15.6666667 37.3333333,22.8453333 37.3333333,31.6666667 C37.3333333,40.488 44.512,47.6666667 53.3333333,47.6666667 C62.1546667,47.6666667 69.3333333,40.488 69.3333333,31.6666667 C69.3333333,22.8453333 62.1546667,15.6666667 53.3333333,15.6666667 Z"/>
        </g>
    </g>
  </symbol>
</svg>