<svg xmlns="http://www.w3.org/2000/svg">
    <symbol id="icon" viewBox="0 0 128 128">
        <title>Post</title>
        <g stroke="none" stroke-width="1" fill="none" fill-rule="evenodd">
            <g fill="currentColor">
                <g>
                    <path d="M117.074517,42.9254834 L117.074517,33.8745166 L33.8745166,117.074517 L38.4,115.2 L6.4,115.2 L12.8,121.6 L12.8,89.6 L10.9254834,94.1254834 L94.1254834,10.9254834 L85.0745166,10.9254834 L117.074517,42.9254834 Z M85.0745166,1.8745166 L1.8745166,85.0745166 C0.674283778,86.2747494 0,87.9026145 0,89.6 L0,121.6 C0,125.134622 2.8653776,128 6.4,128 L38.4,128 C40.0973855,128 41.7252506,127.325716 42.9254834,126.125483 L126.125483,42.9254834 C128.624839,40.4261279 128.624839,36.3738721 126.125483,33.8745166 L94.1254834,1.8745166 C91.6261279,-0.624838867 87.5738721,-0.624838867 85.0745166,1.8745166 Z" id="Stroke-300" />
                    <path d="M74.9254834,21.0745166 C72.4261279,18.5751611 68.3738721,18.5751611 65.8745166,21.0745166 C63.3751611,23.5738721 63.3751611,27.6261279 65.8745166,30.1254834 L97.8745166,62.1254834 C100.373872,64.6248389 104.426128,64.6248389 106.925483,62.1254834 C109.424839,59.6261279 109.424839,55.5738721 106.925483,53.0745166 L74.9254834,21.0745166 Z" />
                </g>
            </g>
        </g>
    </symbol>
</svg>
