<svg xmlns="http://www.w3.org/2000/svg">
  <symbol id="icon" viewBox="0 0 128 128">
    <title>Revert</title>
    <g stroke="none" stroke-width="1" fill="none" fill-rule="evenodd">
        <g fill="currentColor">
            <path d="M14.0465358,64.1880508 L52.3650548,102.50657 L52.3650548,81.6425842 C52.3650548,78.4251319 54.9657803,75.8244064 58.1832327,75.8244064 L64.0014105,75.8244064 C73.3686767,75.8244064 95.0821163,75.8244064 113.211558,85.4243998 C103.669747,57.194601 79.0995819,52.5516951 64.0014105,52.5516951 L58.1832327,52.5516951 C54.9657803,52.5516951 52.3650548,49.9509696 52.3650548,46.7335173 L52.3650548,25.8695317 L14.0465358,64.1880508 Z M58.1832327,122.369829 C56.6705064,122.369829 55.1810529,121.776375 54.0697809,120.665103 L1.70618064,68.3015025 C-0.568726881,66.0265949 -0.568726881,62.3495066 1.70618064,60.074599 L54.0697809,7.71099874 C55.7337798,6.04699989 58.2355963,5.53500024 60.4115948,6.44845415 C62.5875933,7.34445354 64.0014105,9.47390662 64.0014105,11.8244505 L64.0014105,40.9153395 C81.0719442,40.9153395 121.473371,46.5124266 127.954821,98.3756636 C128.263184,100.842571 126.971549,103.233842 124.737369,104.321841 C122.526461,105.415659 119.826827,104.979295 118.069737,103.210569 C102.31993,87.460762 75.4690389,87.460762 64.0014105,87.460762 L64.0014105,116.551651 C64.0014105,118.902195 62.5875933,121.031648 60.4115948,121.927647 C59.6901407,122.230193 58.9337776,122.369829 58.1832327,122.369829 L58.1832327,122.369829 Z"/>
        </g>
    </g>
  </symbol>
</svg>