<svg xmlns="http://www.w3.org/2000/svg">
    <symbol id="icon" viewBox="0 0 128 128">
        <title>Attachment</title>
        <g id="icon" stroke="none" stroke-width="1" fill="none" fill-rule="evenodd">
            <g fill="currentColor">
                <path d="M42.6613733,128 C37.5124772,128 32.4924805,127.02263 27.7401981,125.094804 C22.8165219,123.097571 18.4013611,120.166879 14.6165329,116.383467 C10.8317048,112.600055 7.90101256,108.183478 5.9051956,103.259802 C3.97736956,98.5075195 3,93.4875228 3,88.3386267 C3,83.1897305 3.97736956,78.1683174 5.9051956,73.416035 C7.90101256,68.4923588 10.8331212,64.077198 14.6165329,60.2923698 L14.6264483,60.2824545 L66.88739,8.27222929 C69.5815305,5.57950534 72.7261108,3.49161733 76.2333094,2.0694738 C79.6172744,0.696906988 83.1910474,0 86.8568915,0 C90.5213191,0 94.0950921,0.696906988 97.4804736,2.0694738 C100.987672,3.49161733 104.130836,5.57950534 106.826393,8.27222929 C109.520533,10.9663697 111.607005,14.11095 113.030565,17.6181486 C114.403132,21.0035301 115.098622,24.5773032 115.098622,28.2431472 C115.098622,31.9089913 114.403132,35.4827643 113.030565,38.8681459 C111.607005,42.3753444 109.520533,45.5185083 106.826393,48.2140652 L54.6801859,100.357439 C53.058319,101.979306 51.1673214,103.234305 49.0539368,104.092691 C47.017042,104.918497 44.8654125,105.337775 42.6599568,105.337775 C40.4545012,105.337775 38.3042882,104.918497 36.2659769,104.092691 C34.1540087,103.235722 32.2615946,101.979306 30.6397278,100.357439 C29.0178609,98.7369889 27.7628617,96.8445748 26.9058928,94.7326067 C26.0829193,92.6942954 25.6636419,90.5440823 25.6636419,88.3386267 C25.6636419,86.133171 26.0829193,83.9815415 26.9087257,81.9446467 C27.7642782,79.8326786 29.0206939,77.938848 30.6425607,76.3169811 L78.7192276,28.2417308 C80.9317656,26.0291927 84.5197034,26.0291927 86.7322415,28.2417308 C88.9447795,30.4542688 88.9447795,34.0422066 86.7322415,36.2547446 L38.6555746,84.329995 C37.5847175,85.4022686 36.9954628,86.8258286 36.9954628,88.3386267 C36.9954628,89.8514248 37.5847175,91.2735683 38.6555746,92.3444254 C39.7250152,93.4152825 41.1485752,94.0045372 42.6613733,94.0045372 C44.1741714,94.0045372 45.5977314,93.4152825 46.667172,92.3444254 L98.8133791,40.1996348 C102.007536,37.0054778 103.766801,32.7588779 103.766801,28.2431472 C103.766801,23.7274166 102.007536,19.4794002 98.8133791,16.2866597 C95.6206385,13.0910862 91.3740386,11.3318209 86.8568915,11.3318209 C82.3397444,11.3318209 78.091728,13.0910862 74.9004039,16.2852432 L74.8904886,16.2951585 L22.6252974,68.3096332 C19.9212416,71.0151054 17.8276877,74.1667681 16.4041277,77.6753832 C15.0301444,81.0678471 14.3318209,84.6572014 14.3318209,88.3386267 C14.3318209,92.020052 15.0301444,95.6079898 16.4055442,99.0004537 C17.8305207,102.511902 19.9226581,105.663564 22.6309633,108.369037 C25.3364356,111.074509 28.4895147,113.169479 31.9981298,114.593039 C35.3920102,115.969856 38.979948,116.668179 42.6613733,116.668179 C46.3427986,116.668179 49.9321529,115.969856 53.3246168,114.593039 C56.8360648,113.169479 59.9863111,111.075925 62.6931998,108.369037 L114.777082,56.2851547 C116.98962,54.0726166 120.577558,54.0726166 122.788679,56.2851547 C125.001217,58.4976927 125.001217,62.0856305 122.788679,64.2981685 L70.7047972,116.382051 C66.9213855,120.165462 62.5062248,123.096154 57.5811321,125.093388 C52.8316826,127.02263 47.8102695,128 42.6613733,128 L42.6613733,128 Z"/>
            </g>
        </g>
    </symbol>
</svg>
