<svg xmlns="http://www.w3.org/2000/svg">
  <symbol id="icon" viewBox="0 0 128 128">
    <title>Ellipsis</title>
    <g stroke="none" stroke-width="1" fill="none" fill-rule="evenodd">
        <g fill="currentColor">
            <path d="M17.4545455,47 C7.81527273,47 0,54.8152727 0,64.4545455 C0,74.0938182 7.81527273,81.9090909 17.4545455,81.9090909 C27.0938182,81.9090909 34.9090909,74.0938182 34.9090909,64.4545455 C34.9090909,54.8152727 27.0938182,47 17.4545455,47 Z M17.4545455,70.2727273 C14.2414545,70.2727273 11.6363636,67.6676364 11.6363636,64.4545455 C11.6363636,61.2414545 14.2414545,58.6363636 17.4545455,58.6363636 C20.6676364,58.6363636 23.2727273,61.2414545 23.2727273,64.4545455 C23.2727273,67.6676364 20.6676364,70.2727273 17.4545455,70.2727273 Z M64,47 C54.3607273,47 46.5454545,54.8152727 46.5454545,64.4545455 C46.5454545,74.0938182 54.3607273,81.9090909 64,81.9090909 C73.6392727,81.9090909 81.4545455,74.0938182 81.4545455,64.4545455 C81.4545455,54.8152727 73.6392727,47 64,47 Z M64,70.2727273 C60.7869091,70.2727273 58.1818182,67.6676364 58.1818182,64.4545455 C58.1818182,61.2414545 60.7869091,58.6363636 64,58.6363636 C67.2130909,58.6363636 69.8181818,61.2414545 69.8181818,64.4545455 C69.8181818,67.6676364 67.2130909,70.2727273 64,70.2727273 Z M110.545455,47 C100.906182,47 93.0909091,54.8152727 93.0909091,64.4545455 C93.0909091,74.0938182 100.906182,81.9090909 110.545455,81.9090909 C120.184727,81.9090909 128,74.0938182 128,64.4545455 C128,54.8152727 120.184727,47 110.545455,47 Z M110.545455,70.2727273 C107.332364,70.2727273 104.727273,67.6676364 104.727273,64.4545455 C104.727273,61.2414545 107.332364,58.6363636 110.545455,58.6363636 C113.758545,58.6363636 116.363636,61.2414545 116.363636,64.4545455 C116.363636,67.6676364 113.758545,70.2727273 110.545455,70.2727273 Z"/>
        </g>
    </g>
  </symbol>
</svg>