<svg xmlns="http://www.w3.org/2000/svg">
    <symbol id="icon" viewBox="0 0 128 128">
        <title>Event</title>
	    <g stroke="none" stroke-width="1" fill="none" fill-rule="evenodd">
	        <g fill="currentColor">
	            <path d="M90.4545455,11.6363636 C73,11.6363636 55.5454545,-1.42108547e-14 38.0909091,-1.42108547e-14 C20.6363636,-1.42108547e-14 9,5.81818182 9,5.81818182 L9,75.6363636 L9,87.2727273 L9,122.181818 C9,125.394909 11.6050909,128 14.8181818,128 C18.0312727,128 20.6363636,125.394909 20.6363636,122.181818 L20.6363636,83.4254545 C25.3330909,82.3432727 31.2676364,81.4545455 38.0909091,81.4545455 C55.5454545,81.4545455 73,93.0909091 90.4545455,93.0909091 C107.909091,93.0909091 119.545455,87.2727273 119.545455,87.2727273 L119.545455,5.81818182 C119.545455,5.81818182 107.909091,11.6363636 90.4545455,11.6363636 L90.4545455,11.6363636 Z M107.909091,79.1170909 C102.239273,80.6909091 96.3367273,81.4545455 90.4545455,81.4545455 C81.9483636,81.4545455 73.6458182,78.1134545 65.6909091,75.4821818 C56.7556364,72.5250909 47.5847273,69.8181818 38.0909091,69.8181818 C32.2363636,69.8181818 26.3789091,70.3883636 20.6363636,71.5272727 L20.6363636,13.9738182 C26.3061818,12.4 32.2072727,11.6363636 38.0909091,11.6363636 C46.5970909,11.6363636 54.8996364,14.9774545 62.8545455,17.6087273 C71.7898182,20.5658182 80.9607273,23.2727273 90.4545455,23.2727273 C96.3090909,23.2727273 102.166545,22.7025455 107.909091,21.5636364 L107.909091,79.1170909 L107.909091,79.1170909 Z"/>
	        </g>
	    </g>
	</symbol>
</svg>
