<svg xmlns="http://www.w3.org/2000/svg">
  <symbol id="icon" viewBox="0 0 128 128">
    <title>Feed</title>
    <g stroke="none" stroke-width="1" fill="none" fill-rule="evenodd">
        <g fill="currentColor">
            <path d="M110.545455,0 L17.4545455,0 C7.81090909,0 0,7.81090909 0,17.4545455 L0,110.545455 C0,120.189091 7.81090909,128 17.4545455,128 L110.545455,128 C120.189091,128 128,120.189091 128,110.545455 L128,17.4545455 C128,7.81090909 120.189091,0 110.545455,0 L110.545455,0 Z M116.363636,110.545455 C116.363636,113.76 113.76,116.363636 110.545455,116.363636 L17.4545455,116.363636 C14.2414545,116.363636 11.6363636,113.76 11.6363636,110.545455 L11.6363636,17.4545455 C11.6363636,14.2414545 14.2414545,11.6363636 17.4545455,11.6363636 L110.545455,11.6363636 C113.76,11.6363636 116.363636,14.2414545 116.363636,17.4545455 L116.363636,110.545455 L116.363636,110.545455 Z M89.2429648,95.6341746 C86.0237648,95.6341746 83.2461648,93.2149746 82.8877648,89.9381746 C80.2765648,66.3605746 61.2685648,47.3589746 37.6973648,44.7541746 C34.1773648,44.3637746 31.6493648,41.2021746 32.0397648,37.6885746 C32.4237648,34.1749746 35.5341648,31.6917746 39.0989648,32.0309746 C68.5773648,35.2821746 92.3405648,59.0453746 95.6109648,88.5301746 C96.0013648,92.0373746 93.4669648,95.2117746 89.9533648,95.5957746 C89.7101648,95.6213746 89.4733648,95.6341746 89.2429648,95.6341746 M38.432,94.8 C34.8992,94.8 32,91.9392 32,88.4 C32,84.8608 34.8352,82 38.368,82 L38.432,82 C41.9712,82 44.832,84.8608 44.832,88.4 C44.832,91.9392 41.9712,94.8 38.432,94.8 M63.3552413,94.7579943 C60.3728413,94.7579943 57.7040413,92.6651943 57.0896413,89.6315943 C55.0416413,79.5515943 47.2080413,71.7115943 37.1216413,69.6635943 C33.6592413,68.9659943 31.4256413,65.5803943 32.1296413,62.1179943 C32.8272413,58.6555943 36.2192413,56.4347943 39.6752413,57.1259943 C54.7984413,60.2043943 66.5552413,71.9547943 69.6272413,87.0843943 C70.3376413,90.5467943 68.0976413,93.9259943 64.6352413,94.6235943 C64.2064413,94.7131943 63.7776413,94.7579943 63.3552413,94.7579943"/>
        </g>
    </g>
  </symbol>
</svg>