<svg xmlns="http://www.w3.org/2000/svg">
  <symbol id="icon" viewBox="0 0 128 128">
    <title>Info</title>
    <g stroke="none" stroke-width="1" fill="none" fill-rule="evenodd">
        <g fill="currentColor">
            <path d="M64,128 C28.7127273,128 0,99.2872727 0,64 C0,28.7127273 28.7127273,0 64,0 C99.2872727,0 128,28.7127273 128,64 C128,99.2872727 99.2872727,128 64,128 M64,11.6363636 C35.1243636,11.6363636 11.6363636,35.1243636 11.6363636,64 C11.6363636,92.8756364 35.1243636,116.363636 64,116.363636 C92.8756364,116.363636 116.363636,92.8756364 116.363636,64 C116.363636,35.1243636 92.8756364,11.6363636 64,11.6363636 Z M64.0290909,46.5454545 C60.8174545,46.5454545 58.1818182,43.9447273 58.1818182,40.7272727 C58.1818182,37.5098182 60.7592727,34.9090909 63.9709091,34.9090909 L64.0290909,34.9090909 C67.2465455,34.9090909 69.8472727,37.5098182 69.8472727,40.7272727 C69.8472727,43.9447273 67.2465455,46.5454545 64.0290909,46.5454545 Z M64,93.0909091 C60.7825455,93.0909091 58.1818182,90.4901818 58.1818182,87.2727273 L58.1818182,64 C58.1818182,60.7825455 60.7825455,58.1818182 64,58.1818182 C67.2174545,58.1818182 69.8181818,60.7825455 69.8181818,64 L69.8181818,87.2727273 C69.8181818,90.4901818 67.2174545,93.0909091 64,93.0909091 Z"/>
        </g>
    </g>
  </symbol>
</svg>