<svg xmlns="http://www.w3.org/2000/svg">
    <symbol id="icon" viewBox="0 0 128 128">
        <title>Label</title>
	    <g stroke="none" stroke-width="1" fill="none" fill-rule="evenodd">
	        <g fill="currentColor">
	            <path d="M61.0068921,11.6364298 L114.659561,65.2920073 C116.143205,66.772743 116.364298,68.5051165 116.364298,69.4054853 C116.364298,70.3043995 116.143205,72.0367729 114.659561,73.5189632 L73.5189632,114.659561 C72.0353184,116.143205 70.3043995,116.364298 69.4054853,116.364298 C68.5051165,116.364298 66.772743,116.143205 65.2905528,114.659561 L11.6364298,61.0054375 L11.6364298,11.6364298 L61.0068921,11.6364298 L61.0068921,11.6364298 Z M65.8258286,0 L0,0 L0,65.8258286 L57.0621424,122.887971 C60.4716163,126.29599 64.9385508,128.000727 69.4054853,128.000727 C73.8709652,128.000727 78.3393542,126.29599 81.7473736,122.887971 L122.887971,81.7473736 C129.70401,74.9298803 129.70401,63.8796357 122.887971,57.0621424 L65.8258286,0 L65.8258286,0 L65.8258286,0 Z M43.6366116,29.0910744 C35.6031114,29.0910744 29.0910744,35.6045659 29.0910744,43.6366116 C29.0910744,51.6686572 35.6031114,58.1821488 43.6366116,58.1821488 C51.6686572,58.1821488 58.1821488,51.6686572 58.1821488,43.6366116 C58.1821488,35.6045659 51.6701118,29.0910744 43.6366116,29.0910744 L43.6366116,29.0910744 Z M43.6366116,46.545719 C42.0307843,46.545719 40.7275041,45.2424389 40.7275041,43.6366116 C40.7275041,42.0307843 42.0307843,40.7275041 43.6366116,40.7275041 C45.2424389,40.7275041 46.545719,42.0307843 46.545719,43.6366116 C46.545719,45.2424389 45.2438934,46.545719 43.6366116,46.545719 L43.6366116,46.545719 Z" />
	        </g>
	    </g>
	</symbol>
</svg>
