<svg xmlns="http://www.w3.org/2000/svg">
    <symbol id="icon" viewBox="0 0 128 128">
        <title>Attachment</title>
        <g stroke="none" stroke-width="1" fill="none" fill-rule="evenodd">
            <g fill="currentColor">
                <path d="M11.1304348,105.740666 C11.1304348,111.872676 16.1234833,116.869565 22.2593339,116.869565 L105.740666,116.869565 C111.872676,116.869565 116.869565,111.876517 116.869565,105.740666 L116.869565,22.2593339 C116.869565,16.1273239 111.876517,11.1304348 105.740666,11.1304348 L22.2593339,11.1304348 C16.1273239,11.1304348 11.1304348,16.1234833 11.1304348,22.2593339 L11.1304348,105.740666 Z M22.2593339,0 L105.740666,0 C118.034157,0 128,9.99063018 128,22.2593339 L128,105.740666 C128,118.034157 118.00937,128 105.740666,128 L22.2593339,128 C9.96584323,128 0,118.00937 0,105.740666 L0,22.2593339 C0,9.96584323 9.99063018,0 22.2593339,0 Z" />
                <polygon points="96 55.6521739 101.565217 55.6521739 101.565217 44.5217391 96 44.5217391 32 44.5217391 26.4347826 44.5217391 26.4347826 55.6521739 32 55.6521739" />
                <polygon points="72.3478261 86.2608696 77.9130435 86.2608696 77.9130435 75.1304348 72.3478261 75.1304348 32 75.1304348 26.4347826 75.1304348 26.4347826 86.2608696 32 86.2608696" />
            </g>
        </g>
    </symbol>
</svg>
