<svg xmlns="http://www.w3.org/2000/svg">
  <symbol id="icon" viewBox="0 0 128 128">
    <title>Person</title>
    <g stroke="none" stroke-width="1" fill="none" fill-rule="evenodd">
        <g fill="currentColor">
            <path d="M64.1818182,11.6363636 C54.5585455,11.6363636 46.7272727,19.4676364 46.7272727,29.0909091 C46.7272727,38.7141818 54.5585455,46.5454545 64.1818182,46.5454545 C73.8050909,46.5454545 81.6363636,38.7141818 81.6363636,29.0909091 C81.6363636,19.4676364 73.8050909,11.6363636 64.1818182,11.6363636 M64.1818182,58.1818182 C48.1410909,58.1818182 35.0909091,45.1316364 35.0909091,29.0909091 C35.0909091,13.0501818 48.1410909,0 64.1818182,0 C80.2225455,0 93.2727273,13.0501818 93.2727273,29.0909091 C93.2727273,45.1316364 80.2225455,58.1818182 64.1818182,58.1818182 M104.909091,128 L23.4545455,128 C13.8312727,128 6,120.168727 6,110.545455 L6,104.727273 C6,85.1549091 31.5592727,69.8181818 64.1818182,69.8181818 C96.8043636,69.8181818 122.363636,85.1549091 122.363636,104.727273 L122.363636,110.545455 C122.363636,120.168727 114.532364,128 104.909091,128 M64.1818182,81.4545455 C36.7490909,81.4545455 17.6363636,93.7192727 17.6363636,104.727273 L17.6363636,110.545455 C17.6363636,113.757091 20.2429091,116.363636 23.4545455,116.363636 L104.909091,116.363636 C108.120727,116.363636 110.727273,113.757091 110.727273,110.545455 L110.727273,104.727273 C110.727273,93.7192727 91.6145455,81.4545455 64.1818182,81.4545455"/>
        </g>
    </g>
  </symbol>
</svg>