<svg xmlns="http://www.w3.org/2000/svg">
    <symbol id="icon" viewBox="0 0 128 128">
        <title>Private</title>
        <g stroke="none" stroke-width="1" fill="none" fill-rule="evenodd">
            <g fill="currentColor">
                <path d="M110.545455,58.1818182 L98.9090909,58.1818182 L98.9090909,34.9090909 C98.9090909,15.6290909 83.28,0 64,0 C44.72,0 29.0909091,15.6290909 29.0909091,34.9090909 L29.0909091,58.1818182 L17.4545455,58.1818182 C7.81090909,58.1818182 0,65.9927273 0,75.6363636 L0,110.545455 C0,120.189091 7.81090909,128 17.4545455,128 L110.545455,128 C120.189091,128 128,120.189091 128,110.545455 L128,75.6363636 C128,65.9927273 120.189091,58.1818182 110.545455,58.1818182 L110.545455,58.1818182 Z M40.7272727,34.9090909 C40.7272727,22.0567273 51.1476364,11.6363636 64,11.6363636 C76.8523636,11.6363636 87.2727273,22.0567273 87.2727273,34.9090909 L87.2727273,58.1818182 L40.7272727,58.1818182 L40.7272727,34.9090909 L40.7272727,34.9090909 Z M116.363636,110.545455 C116.363636,113.76 113.76,116.363636 110.545455,116.363636 L17.4545455,116.363636 C14.24,116.363636 11.6363636,113.76 11.6363636,110.545455 L11.6363636,75.6363636 C11.6363636,72.4218182 14.24,69.8181818 17.4545455,69.8181818 L110.545455,69.8181818 C113.76,69.8181818 116.363636,72.4218182 116.363636,75.6363636 L116.363636,110.545455 L116.363636,110.545455 Z"/>
            </g>
        </g>
    </symbol>
</svg>
