<svg xmlns="http://www.w3.org/2000/svg">
    <symbol id="icon" viewBox="0 0 128 128">
        <title>Public</title>
        <g stroke="none" stroke-width="1" fill="none" fill-rule="evenodd">
            <g fill="currentColor">
                <path d="M66.4567273,0.0421818182 C65.6436364,0.0145454545 64.8290909,0 64,0 C63.1709091,0 62.3563636,0.0145454545 61.5432727,0.0421818182 C27.3309091,1.33818182 0,29.4836364 0,64 C0,98.5163636 27.3309091,126.661818 61.5432727,127.957818 C62.3563636,127.985455 63.1709091,128 64,128 C64.8290909,128 65.6436364,127.985455 66.4567273,127.957818 C100.669091,126.661818 128,98.5163636 128,64 C128,29.4836364 100.669091,1.33818182 66.4567273,0.0421818182 L66.4567273,0.0421818182 Z M116.029091,58.1818182 L92.8872727,58.1818182 C91.5636364,38.6909091 83.7658182,23.1418182 77.2654545,13.3236364 C97.9345455,18.7345455 113.643636,36.4523636 116.029091,58.1818182 L116.029091,58.1818182 Z M64.0145455,14.8072727 C69.7294545,22.2545455 79.5781818,37.7890909 81.2218182,58.1818182 L46.7781818,58.1818182 C48.4218182,37.8763636 58.2981818,22.2836364 64.0145455,14.8072727 L64.0145455,14.8072727 Z M81.2218182,69.8181818 C79.5781818,90.1236364 69.7163636,105.716364 63.9854545,113.192727 C58.2705455,105.745455 48.4218182,90.2109091 46.7781818,69.8181818 L81.2218182,69.8181818 L81.2218182,69.8181818 Z M50.7345455,13.3236364 C44.2327273,23.1418182 36.4363636,38.6909091 35.1141818,58.1818182 L11.9709091,58.1818182 C14.3563636,36.4523636 30.0654545,18.7345455 50.7345455,13.3236364 L50.7345455,13.3236364 Z M11.9709091,69.8181818 L35.1127273,69.8181818 C36.4363636,89.296 44.2181818,104.843636 50.72,114.661818 C30.0509091,109.265455 14.3563636,91.5476364 11.9709091,69.8181818 L11.9709091,69.8181818 Z M77.28,114.661818 C83.7818182,104.843636 91.5636364,89.296 92.8858182,69.8181818 L116.027636,69.8181818 C113.643636,91.5476364 97.9490909,109.265455 77.28,114.661818 L77.28,114.661818 Z"/>
            </g>
        </g>
    </symbol>
</svg>
