<svg xmlns="http://www.w3.org/2000/svg">
  <symbol id="icon" viewBox="0 0 128 128">
    <title>Search</title>
    <g stroke="none" stroke-width="1" fill="none" fill-rule="evenodd">
        <g fill="currentColor">
            <path d="M54.4,12.8 C31.4624,12.8 12.8,31.4624 12.8,54.4 C12.8,77.3376 31.4624,96 54.4,96 C77.3376,96 96,77.3376 96,54.4 C96,31.4624 77.3376,12.8 54.4,12.8 M97.1088826,88.0592826 C104.427411,78.7928883 108.8,67.0975775 108.8,54.4 C108.8,24.4032 84.3968,0 54.4,0 C24.4032,0 0,24.4032 0,54.4 C0,84.3968 24.4032,108.8 54.4,108.8 C67.0975775,108.8 78.7928883,104.427411 88.0592826,97.1088826 L117.0752,126.1248 C118.3232,127.3728 119.9616,128 121.6,128 C123.2384,128 124.8768,127.3728 126.1248,126.1248 C128.6272,123.6224 128.6272,119.5776 126.1248,117.0752 L97.1088826,88.0592826 Z"/>
        </g>
    </g>
  </symbol>
</svg>
