<svg xmlns="http://www.w3.org/2000/svg">
  <symbol id="icon" viewBox="0 0 128 128">
    <title>Settings</title>
    <g stroke="none" stroke-width="1" fill="none" fill-rule="evenodd">
        <g fill="currentColor">
            <path d="M112,80 C120.836,80 128,72.836 128,64 C128,55.164 120.836,48 112,48 L109.268,48 C108.7,46.3946667 108.050667,44.828 107.321333,43.3053333 L109.254667,41.3733333 C115.502667,35.124 115.502667,24.9946667 109.254667,18.7453333 C103.005333,12.4973333 92.876,12.4973333 86.6266667,18.7453333 L84.6946667,20.6786667 C83.1706667,19.9493333 81.6053333,19.3 80,18.732 L80,16 C80,7.164 72.836,0 64,0 C55.164,0 48,7.164 48,16 L48,18.732 C46.3946667,19.3 44.828,19.9493333 43.3053333,20.6786667 L41.3733333,18.7453333 C35.124,12.4973333 24.9946667,12.4973333 18.7453333,18.7453333 C12.4973333,24.9946667 12.4973333,35.124 18.7453333,41.3733333 L20.6786667,43.3053333 C19.9493333,44.8293333 19.3,46.3946667 18.732,48 L16,48 C7.164,48 0,55.164 0,64 C0,72.836 7.164,80 16,80 L18.732,80 C19.3,81.6053333 19.9493333,83.172 20.6786667,84.6946667 L18.7453333,86.6266667 C12.4973333,92.876 12.4973333,103.005333 18.7453333,109.254667 C24.9946667,115.502667 35.124,115.502667 41.3733333,109.254667 L43.3053333,107.321333 C44.8293333,108.050667 46.3946667,108.7 48,109.268 L48,112 C48,120.836 55.164,128 64,128 C72.836,128 80,120.836 80,112 L80,109.268 C81.6053333,108.7 83.172,108.050667 84.6946667,107.321333 L86.6266667,109.254667 C92.876,115.502667 103.005333,115.502667 109.254667,109.254667 C115.502667,103.005333 115.502667,92.876 109.254667,86.6266667 L107.321333,84.6946667 C108.050667,83.1706667 108.7,81.6053333 109.268,80 L112,80 Z M100.956,69.3333333 C100.050667,75.6586667 97.56,81.472 93.9013333,86.3586667 L101.502667,93.9613333 L101.712,94.1693333 C103.794667,96.252 103.794667,99.6306667 101.712,101.712 C99.6293333,103.793333 96.252,103.794667 94.1693333,101.712 L93.9613333,101.502667 L86.3586667,93.9013333 C81.472,97.56 75.6586667,100.050667 69.3333333,100.956 L69.3333333,112 C69.3333333,114.945333 66.9453333,117.333333 64,117.333333 C61.0546667,117.333333 58.6666667,114.945333 58.6666667,112 L58.6666667,100.956 C52.3413333,100.050667 46.528,97.56 41.6413333,93.9013333 L34.0386667,101.502667 L33.8306667,101.712 C31.748,103.794667 28.3693333,103.794667 26.288,101.712 C24.2066667,99.6293333 24.2053333,96.252 26.288,94.1693333 L26.4973333,93.9613333 L34.0986667,86.3586667 C30.44,81.472 27.9493333,75.6586667 27.044,69.3333333 L16,69.3333333 C13.0546667,69.3333333 10.6666667,66.9453333 10.6666667,64 C10.6666667,61.0546667 13.0546667,58.6666667 16,58.6666667 L27.044,58.6666667 C27.9493333,52.3413333 30.44,46.528 34.0986667,41.6413333 L26.4973333,34.0386667 L26.288,33.8306667 C24.2053333,31.748 24.2053333,28.3693333 26.288,26.288 C28.3706667,24.2066667 31.748,24.2053333 33.8306667,26.288 L34.0386667,26.4973333 L41.6413333,34.0986667 C46.528,30.44 52.34,27.9493333 58.6666667,27.044 L58.6666667,16 C58.6666667,13.0546667 61.0546667,10.6666667 64,10.6666667 C66.9453333,10.6666667 69.3333333,13.0546667 69.3333333,16 L69.3333333,27.044 C75.6586667,27.9493333 81.472,30.44 86.3586667,34.0986667 L93.9613333,26.4973333 L94.1693333,26.288 C96.252,24.2053333 99.6306667,24.2053333 101.712,26.288 C103.793333,28.3706667 103.794667,31.748 101.712,33.8306667 L101.502667,34.0386667 L93.9013333,41.6413333 C97.56,46.528 100.050667,52.34 100.956,58.6666667 L112,58.6666667 C114.945333,58.6666667 117.333333,61.0546667 117.333333,64 C117.333333,66.9453333 114.945333,69.3333333 112,69.3333333 L100.956,69.3333333 Z M64,42.6666667 C52.2173333,42.6666667 42.6666667,52.2173333 42.6666667,64 C42.6666667,75.7826667 52.2173333,85.3333333 64,85.3333333 C75.7826667,85.3333333 85.3333333,75.7826667 85.3333333,64 C85.3333333,52.2173333 75.7826667,42.6666667 64,42.6666667 Z M64,74.6666667 C58.1093333,74.6666667 53.3333333,69.8906667 53.3333333,64 C53.3333333,58.1093333 58.1093333,53.3333333 64,53.3333333 C69.8906667,53.3333333 74.6666667,58.1093333 74.6666667,64 C74.6666667,69.8906667 69.8906667,74.6666667 64,74.6666667 Z"/>
        </g>
    </g>
  </symbol>
</svg>