<svg xmlns="http://www.w3.org/2000/svg">
    <symbol id="icon" viewBox="0 0 128 128">
        <title>Task</title>
        <g stroke="none" stroke-width="1" fill="none" fill-rule="evenodd">
            <g fill="currentColor">
                <path d="M110.545455,0 L17.4545455,0 C7.81090909,0 0,7.81090909 0,17.4545455 L0,110.545455 C0,120.189091 7.81090909,128 17.4545455,128 L110.545455,128 C120.189091,128 128,120.189091 128,110.545455 L128,17.4545455 C128,7.81090909 120.189091,0 110.545455,0 L110.545455,0 Z M116.363636,110.545455 C116.363636,113.76 113.76,116.363636 110.545455,116.363636 L17.4545455,116.363636 C14.2414545,116.363636 11.6363636,113.76 11.6363636,110.545455 L11.6363636,17.4545455 C11.6363636,14.2414545 14.2414545,11.6363636 17.4545455,11.6363636 L110.545455,11.6363636 C113.76,11.6363636 116.363636,14.2414545 116.363636,17.4545455 L116.363636,110.545455 L116.363636,110.545455 Z M83.1592727,45.4850909 L58.4741818,70.1716364 L46.1323636,57.8298182 C43.8603636,55.5578182 40.176,55.5578182 37.904,57.8298182 C35.632,60.1018182 35.632,63.7861818 37.904,66.0567273 L54.3563636,82.512 C56.6298182,84.784 60.3141818,84.784 62.5861818,82.512 L91.3847273,53.7134545 C93.6581818,51.4443636 93.6581818,47.76 91.3876364,45.4865455 C89.1156364,43.2130909 85.4312727,43.2130909 83.1592727,45.4850909 L83.1592727,45.4850909 Z"/>
            </g>
        </g>
    </symbol>
</svg>
