<svg xmlns="http://www.w3.org/2000/svg">
  <symbol id="icon" viewBox="0 0 128 128">
    <title>Twitter</title>
    <g stroke="none" stroke-width="1" fill="none" fill-rule="evenodd">
        <g fill="currentColor">
            <path d="M26.4375143,104.446868 C43.7871325,108.905608 61.5207571,106.793573 76.4010014,98.0414293 C95.6386506,86.7239101 106.668165,65.688898 106.668165,40.333815 C106.668165,39.2937979 106.55083,38.2057801 106.316159,36.9097588 C106.001487,35.2137309 106.529496,33.4643689 107.729516,32.2216818 C108.988203,30.9256605 110.086888,29.6296392 111.046904,28.3549516 C109.905552,28.7762919 108.732199,29.1816319 107.521512,29.5656382 C105.52148,30.2163155 103.30811,29.6029721 101.900087,28.0242795 C98.278694,23.9228789 93.3399462,21.6668418 88.0011919,21.6668418 C77.7076895,21.6668418 69.3342187,30.0456461 69.3342187,40.333815 L69.3395521,41.5071676 C69.3448855,42.9738584 69.350219,45.1125601 69.3342187,45.795238 C69.2648842,48.6912856 66.8968453,51.0006568 64.0007978,51.0006568 L63.9954644,51.0006568 C40.1924068,50.9846566 24.0481417,39.0111266 13.0719615,27.2989343 C10.0105779,42.2165126 9.11989662,71.7263305 44.4484767,85.9718977 C46.0058356,86.5159067 47.2805232,87.7372601 47.8085319,89.3479532 C48.5285437,91.5399892 47.8245322,93.9400286 45.9631683,95.3053843 C40.3150755,99.4494524 33.7869683,102.500169 26.4375143,104.446868 M44.0751373,117.396414 C30.2082429,117.396414 16.0106764,113.700353 2.74645863,106.334899 C0.618423686,105.156213 -0.437593655,102.686839 0.170416329,100.3348 C0.778426313,97.9774282 2.90112784,96.3347346 5.33316777,96.3347346 C15.2639975,96.3347346 23.9468068,94.718708 31.2642602,91.5079887 C-14.3524888,66.2382404 5.4931704,14.9040641 5.71184066,14.3547218 C6.42118564,12.5893594 8.00521165,11.3360055 9.88257581,11.0586676 C11.7652734,10.8026634 13.6533044,11.5226752 14.8319904,13.0000328 C24.2348115,24.760226 37.5736972,38.1151119 58.6673769,40.0884776 C58.8007124,24.0295473 71.9049276,11 88.0011919,11 C95.1053085,11 101.958754,13.6507102 107.302842,18.3654543 C112.172255,16.562758 116.337657,14.4133894 119.463042,12.0720176 C121.217737,10.7653295 123.585776,10.6479942 125.441807,11.7840129 C127.308504,12.9200315 128.295187,15.080067 127.921847,17.2294356 C127.852513,17.6721096 126.081817,27.5442717 117.201671,37.6831048 C117.287006,38.5951198 117.335007,39.4751342 117.335007,40.333815 C117.335007,69.566295 104.385461,93.9506954 81.8090902,107.236247 C70.2942345,114.015025 57.3393551,117.396414 44.0751373,117.396414"/>
        </g>
    </g>
  </symbol>
</svg>