<svg xmlns="http://www.w3.org/2000/svg">
  <symbol id="icon" viewBox="0 0 128 128">
    <title>Delete</title>
    <g stroke="none" stroke-width="1" fill="none" fill-rule="evenodd">
        <g fill="currentColor">
            <path d="M61.2453333,80.2485333 C59.88,80.2485333 58.5146667,79.7258667 57.4746667,78.6858667 L41.4746667,62.6858667 C39.3893333,60.6005333 39.3893333,57.2298667 41.4746667,55.1445333 C43.56,53.0592 46.9306667,53.0592 49.016,55.1445333 L61.2453333,67.3738667 L116.141333,12.4778667 C118.226667,10.3925333 121.597333,10.3925333 123.682667,12.4778667 C125.768,14.5632 125.768,17.9338667 123.682667,20.0192 L65.016,78.6858667 C63.976,79.7258667 62.6106667,80.2485333 61.2453333,80.2485333"/>
            <path d="M61.2453333,125.493333 C57.144,125.493333 53.0533333,123.936 49.9333333,120.816 L41.3626667,112.250667 L29.2453333,112.250667 C20.424,112.250667 13.2453333,105.072 13.2453333,96.2506667 L13.2453333,84.128 L4.68,75.5626667 C-1.56,69.3226667 -1.56,59.1733333 4.68,52.9386667 L13.2453333,44.368 L13.2453333,32.2506667 C13.2453333,23.424 20.424,16.2506667 29.2453333,16.2506667 L41.3626667,16.2506667 L49.9333333,7.68 C56.1733333,1.44 66.3173333,1.44 72.5573333,7.68 L81.128,16.2506667 L84.408,16.2506667 C87.3573333,16.2506667 89.7413333,18.6346667 89.7413333,21.584 C89.7413333,24.528 87.3573333,26.9173333 84.408,26.9173333 L78.9146667,26.9173333 C77.5013333,26.9173333 76.1466667,26.352 75.144,25.3546667 L65.016,15.2213333 C62.9306667,13.1413333 59.56,13.1413333 57.4746667,15.2213333 L47.3466667,25.3546667 C46.344,26.352 44.9893333,26.9173333 43.576,26.9173333 L29.2453333,26.9173333 C26.3013333,26.9173333 23.912,29.3066667 23.912,32.2506667 L23.912,46.576 C23.912,47.9946667 23.352,49.3493333 22.3493333,50.3466667 L12.2213333,60.48 C10.1413333,62.5546667 10.1413333,65.9413333 12.2213333,68.0213333 L22.3493333,78.1493333 C23.352,79.152 23.912,80.5013333 23.912,81.92 L23.912,96.2506667 C23.912,99.1893333 26.3013333,101.584 29.2453333,101.584 L43.576,101.584 C44.9893333,101.584 46.344,102.144 47.3466667,103.146667 L57.4746667,113.274667 C59.56,115.36 62.9306667,115.36 65.016,113.274667 L75.144,103.146667 C76.1466667,102.144 77.5013333,101.584 78.9146667,101.584 L93.2453333,101.584 C96.1893333,101.584 98.5786667,99.1893333 98.5786667,96.2506667 L98.5786667,81.92 C98.5786667,80.5013333 99.1386667,79.152 100.141333,78.1493333 L110.269333,68.0213333 C112.349333,65.9413333 112.349333,62.5546667 110.269333,60.48 L108.072,58.2773333 C105.992,56.1973333 105.992,52.8213333 108.072,50.736 C110.157333,48.656 113.533333,48.656 115.613333,50.736 L117.810667,52.9386667 C124.050667,59.1733333 124.050667,69.3226667 117.810667,75.5626667 L109.245333,84.128 L109.245333,96.2506667 C109.245333,105.072 102.066667,112.250667 93.2453333,112.250667 L81.128,112.250667 L72.5573333,120.816 C69.4373333,123.936 65.3466667,125.493333 61.2453333,125.493333"/>
        </g>
    </g>
  </symbol>
</svg>